<?xml version="1.0" standalone="no"?>
<!DOCTYPE svg PUBLIC "-//W3C//DTD SVG 20010904//EN"
 "http://www.w3.org/TR/2001/REC-SVG-20010904/DTD/svg10.dtd">
<svg version="1.0" xmlns="http://www.w3.org/2000/svg"
 width="258.000000pt" height="258.000000pt" viewBox="0 0 258.000000 258.000000"
 preserveAspectRatio="xMidYMid meet">
<metadata>
Created by potrace 1.14, written by Peter Selinger 2001-2017
</metadata>
<g transform="translate(0.000000,258.000000) scale(0.100000,-0.100000)"
fill="#000000" stroke="none">
<path d="M1263 2243 l-28 -48 -1 -390 c-1 -214 -2 -394 -3 -398 -1 -8 -84 36
-113 61 -10 8 -18 12 -18 9 0 -4 -24 8 -52 26 -29 18 -154 92 -277 163 -205
118 -229 129 -275 130 -28 0 -54 -1 -58 -3 -4 -2 5 -24 20 -48 29 -47 69 -77
165 -127 34 -18 64 -34 67 -38 3 -3 106 -63 230 -134 124 -70 231 -134 238
-140 10 -10 -39 -42 -240 -158 -139 -81 -267 -154 -285 -165 -107 -62 -126
-73 -132 -73 -3 0 -20 -24 -38 -52 l-32 -53 57 -3 c56 -3 60 -1 232 98 96 56
182 106 190 111 8 5 71 41 140 80 69 39 137 80 153 91 15 11 28 16 28 11 1 -4
2 -186 3 -403 l2 -395 24 -42 c14 -24 28 -43 32 -43 3 0 18 20 32 44 l26 45 0
396 c0 348 2 396 15 391 8 -3 59 -31 112 -62 54 -31 203 -117 330 -190 l233
-134 62 1 c35 0 57 3 51 6 -7 2 -13 10 -13 16 0 6 -10 26 -22 44 -17 25 -81
67 -243 160 -121 69 -238 137 -260 150 -22 14 -75 45 -117 69 -46 26 -75 49
-73 57 3 6 31 25 63 42 31 16 80 44 109 62 29 18 54 33 56 33 6 0 381 218 419
244 29 20 78 88 78 109 0 2 -26 3 -57 2 -54 -2 -71 -10 -253 -115 -107 -62
-213 -123 -235 -135 -22 -13 -87 -51 -145 -84 l-105 -61 -5 412 c-4 317 -8
412 -17 416 -7 2 -13 9 -13 15 0 7 -7 20 -14 30 -13 17 -16 15 -43 -30z"/>
<path d="M1062 1895 c-29 -51 -58 -95 -65 -97 -7 -2 -58 -4 -114 -3 -57 0
-103 0 -103 -1 0 -2 42 -26 93 -55 50 -29 104 -61 120 -71 15 -11 27 -16 27
-11 0 4 4 3 8 -2 9 -14 83 -57 88 -52 3 2 3 90 2 195 l-3 190 -53 -93z"/>
<path d="M1466 1798 c1 -106 2 -194 3 -196 2 -6 116 61 119 70 2 4 8 8 13 8
14 0 189 101 189 109 0 4 -45 7 -100 6 -116 -1 -104 -8 -174 113 -26 45 -49
82 -50 82 -1 0 -1 -87 0 -192z"/>
<path d="M1960 1486 c-8 -7 -40 -27 -70 -43 -30 -16 -86 -48 -124 -71 -37 -23
-71 -42 -75 -42 -3 0 -16 -8 -28 -18 -25 -19 -49 -2 270 -186 l50 -29 -25 44
c-14 24 -40 70 -57 101 l-33 57 49 83 c45 77 66 118 60 118 -2 0 -9 -6 -17
-14z"/>
<path d="M647 1418 c20 -35 41 -69 47 -77 22 -29 15 -59 -34 -142 -27 -46 -50
-87 -50 -91 0 -8 324 179 328 190 2 7 -18 20 -70 44 -16 7 -28 16 -28 20 0 4
-4 8 -9 8 -5 0 -52 25 -105 55 -52 30 -100 55 -105 55 -6 0 6 -28 26 -62z"/>
<path d="M1093 986 c-13 -6 -23 -14 -23 -18 0 -5 -4 -8 -10 -8 -5 0 -44 -20
-86 -45 -41 -25 -79 -45 -84 -45 -5 0 -15 -6 -22 -13 -7 -6 -30 -21 -51 -32
l-38 -20 107 -3 c107 -3 129 -9 143 -42 12 -30 85 -149 89 -146 4 4 3 379 -1
381 -1 0 -12 -4 -24 -9z"/>
<path d="M1469 993 c-1 -4 -2 -93 -3 -196 -2 -181 -1 -187 16 -165 9 13 28 43
40 68 13 25 26 47 29 50 3 3 11 15 18 28 12 22 16 23 127 20 131 -3 132 -7
-11 74 -49 28 -101 58 -115 67 -14 8 -27 16 -30 16 -3 0 -20 10 -37 23 -18 13
-34 20 -34 15z"/>
</g>
</svg>
